<?xml version="1.0" encoding="UTF-8"?>
<svg version="1.1" xmlns="http://www.w3.org/2000/svg" width="239" height="211">
<path d="M0 0 C78.87 0 157.74 0 239 0 C239 69.63 239 139.26 239 211 C160.13 211 81.26 211 0 211 C0 141.37 0 71.74 0 0 Z " fill="#FCFCFC" transform="translate(0,0)"/>
<path d="M0 0 C78.87 0 157.74 0 239 0 C239 69.63 239 139.26 239 211 C160.13 211 81.26 211 0 211 C0 141.37 0 71.74 0 0 Z M14 21 C10.11951252 27.69612407 10.56166314 34.51141263 10.58007812 42.07006836 C10.57273059 43.49653281 10.56414238 44.92299133 10.55441284 46.34944153 C10.53226163 50.20899822 10.52926287 54.06834101 10.53116035 57.92795253 C10.53128034 61.15601023 10.5227051 64.38402307 10.51438284 67.61206824 C10.49517235 75.2302604 10.49225658 82.84834299 10.49902344 90.46655273 C10.505665 98.31302633 10.48279014 106.15902994 10.44570971 114.00540823 C10.41497699 120.7546906 10.40365646 127.50382203 10.40754652 134.25317293 C10.40961008 138.27876336 10.40419576 142.3039878 10.37965393 146.32951164 C10.35732938 150.11612112 10.35931101 153.90196796 10.37958145 157.68858147 C10.38298134 159.07364499 10.37794642 160.45876044 10.36359787 161.84375381 C10.28697324 169.79180362 10.52563677 175.89284591 16 182 C20.96004785 186.49864805 24.03221731 187.14878767 30.55839539 187.14717102 C31.74186396 187.15268605 31.74186396 187.15268605 32.94924098 187.1583125 C35.60768732 187.16937436 38.26609461 187.17319742 40.92456055 187.17700195 C42.82480494 187.18326477 44.72504811 187.18991141 46.62528992 187.19691467 C51.79902594 187.21434255 56.97275272 187.22488154 62.14651084 187.2331202 C65.37784025 187.23826711 68.60916678 187.24434301 71.84049416 187.25063133 C81.94737344 187.26968934 92.05424539 187.28391856 102.16113919 187.2922433 C113.83346939 187.30201565 125.50560994 187.32833263 137.17787331 187.36874419 C146.19535983 187.39889439 155.21279196 187.41371118 164.2303279 187.41702431 C169.61797445 187.41937626 175.00541855 187.42835546 180.39301109 187.45348549 C185.46309052 187.47675161 190.532834 187.48100524 195.60295296 187.47072411 C197.46252942 187.47022826 199.32212232 187.47656295 201.18164825 187.49028015 C203.72372993 187.50798097 206.26460364 187.50090226 208.8066864 187.48774719 C209.53977624 187.49871644 210.27286608 187.50968568 211.02817076 187.52098733 C216.53149031 187.4523968 219.55385017 186.00619013 224 183 C228.88848164 177.97939723 230.24373526 172.71766184 230.27415466 165.82754517 C230.28911736 164.0024366 230.28911736 164.0024366 230.30438232 162.14045715 C230.30527796 160.80538954 230.30594162 159.47032175 230.30639648 158.13525391 C230.3140242 156.71879136 230.32245275 155.30233294 230.33161926 153.88587952 C230.35350846 150.04903508 230.3623554 146.21227031 230.36744571 142.3753705 C230.37109533 139.97552205 230.37733847 137.57569427 230.3844471 135.17585373 C230.40892043 126.79593748 230.42198929 118.41608297 230.42553711 110.03613281 C230.42917265 102.23684438 230.45907449 94.43794938 230.50094169 86.63878119 C230.53567694 79.9319953 230.55108609 73.22533965 230.55178314 66.51846445 C230.55257474 62.51743066 230.56125922 58.51679816 230.58978081 54.5158577 C230.61601806 50.75144779 230.61813591 46.98777034 230.60212517 43.22331047 C230.5994557 41.19236003 230.62145465 39.16142348 230.64431763 37.13059998 C230.58564447 29.78489615 229.96120125 24.62241198 225 19 C219.47827536 13.61985804 213.62593749 12.69968869 206.14367676 12.73930359 C205.37099221 12.73547804 204.59830766 12.73165249 203.80220842 12.72771102 C201.2228867 12.71742343 198.64378934 12.72136504 196.06445312 12.7253418 C194.21125585 12.72099303 192.35806037 12.71580933 190.50486755 12.70985413 C185.47810051 12.69647205 180.45140869 12.69588448 175.4246273 12.69841743 C171.22716622 12.69948746 167.02972034 12.69460304 162.83226252 12.689812 C152.9306439 12.67872 143.02906323 12.67827799 133.12744141 12.68432617 C122.91293639 12.69036949 112.698569 12.67804514 102.48408747 12.6567561 C93.71196187 12.63914557 84.93988011 12.6331378 76.16773748 12.63639385 C70.92945964 12.63820738 65.69128002 12.63556323 60.45301819 12.62167931 C55.52819227 12.60911418 50.60358119 12.61103263 45.67875862 12.62409019 C43.87198375 12.62645822 42.06519381 12.62371321 40.2584362 12.61546707 C37.79081547 12.60501716 35.32391798 12.6130858 32.85632324 12.6257782 C32.14250378 12.61840391 31.42868432 12.61102963 30.69323397 12.60343188 C23.39011346 12.68238422 18.63916395 15.48315638 14 21 Z " fill="#FDFDFD" transform="translate(0,0)"/>
<path d="M0 0 C0.77127342 -0.00467997 1.54254684 -0.00935994 2.33719218 -0.01418173 C4.91195286 -0.02611191 7.48617932 -0.01668233 10.0609436 -0.00723267 C11.91089691 -0.01129932 13.76084779 -0.01664172 15.61079407 -0.02316284 C20.62947154 -0.03683301 25.64796388 -0.03153848 30.66664457 -0.02202559 C35.9226452 -0.0144252 41.17863009 -0.02147587 46.43463135 -0.02618408 C55.26305992 -0.03164148 64.09141319 -0.02445141 72.91983032 -0.01016235 C83.11839827 0.006154 93.31678619 0.00088294 103.51534975 -0.01564157 C112.27732232 -0.02926892 121.03924079 -0.03116967 129.80122054 -0.02332556 C135.03172926 -0.01865463 140.26215346 -0.01800808 145.49265671 -0.02793503 C150.41257688 -0.0366202 155.33226576 -0.03055439 160.25216103 -0.01325226 C162.05486607 -0.00929527 163.85759067 -0.01040793 165.66028786 -0.01704025 C168.12721967 -0.02527743 170.59341729 -0.01490838 173.06030273 0 C173.76829651 -0.00669217 174.47629029 -0.01338433 175.20573843 -0.02027929 C181.02941998 0.04766099 186.61558123 1.26626043 191.18057251 5.06454468 C191.62658813 5.64333374 192.07260376 6.2221228 192.53213501 6.81845093 C193.22436157 7.68276733 193.22436157 7.68276733 193.93057251 8.56454468 C196.65153644 12.59399762 197.40894822 15.39703614 197.42456055 20.3061676 C197.4373555 22.12498444 197.4373555 22.12498444 197.45040894 23.98054504 C197.44970992 25.32128919 197.44878687 26.66203324 197.44766235 28.0027771 C197.45364803 29.41732132 197.46045367 30.83186227 197.46801758 32.24639893 C197.48568567 36.08757042 197.49037343 39.92865279 197.49164915 43.76986098 C197.4930714 46.17205146 197.49734251 48.57421933 197.50264359 50.97640419 C197.52114993 59.36395326 197.52931387 67.75143876 197.52774048 76.13900757 C197.52654046 83.94499533 197.54761359 91.75070596 197.57922781 99.55662364 C197.605431 106.26678137 197.61610601 112.97684885 197.61482966 119.68705732 C197.614321 123.69088149 197.6199499 127.69445964 197.64118576 131.69823265 C197.66063533 135.46829091 197.6606473 139.23787028 197.6461525 143.00794601 C197.64308398 145.03989243 197.6596957 147.07183922 197.67703247 149.10371399 C197.62400901 156.85685184 197.15052294 164.03875614 191.67441368 169.99318218 C186.80765915 174.2684202 182.65999976 174.5296595 176.47175598 174.52812195 C175.68121694 174.53179864 174.89067791 174.53547532 174.07618314 174.53926343 C171.41850888 174.55030543 168.76087371 174.55414496 166.10317993 174.55795288 C164.20116552 174.56421707 162.29915234 174.57086383 160.3971405 174.5778656 C155.22353082 174.59527767 150.04993039 174.60582763 144.87629867 174.61407113 C141.64513917 174.61922017 138.41398255 174.6252959 135.18282509 174.63158226 C125.07648523 174.65063373 114.97015269 174.66486575 104.86379832 174.67319423 C93.19146823 174.68297169 81.51932753 174.70930475 69.8470642 174.74969512 C60.8287239 174.77983299 51.81043797 174.79466084 42.79204828 174.79797524 C37.40388962 174.8003281 32.01593331 174.80931941 26.6278286 174.83443642 C21.55938052 174.85768179 16.49126852 174.86196457 11.42278099 174.85167503 C9.56278365 174.85117873 7.70276995 174.85752704 5.84282303 174.87123108 C3.30263293 174.88889969 0.76365555 174.88186918 -1.77653503 174.86869812 C-2.5118556 174.87966737 -3.24717616 174.89063661 -4.00477916 174.90193826 C-9.08138272 174.83842553 -11.91875431 173.5449204 -15.84286499 170.38095093 C-20.25352874 165.48021343 -22.09079862 162.01847198 -22.1035614 155.40431213 C-22.11064621 154.1804631 -22.11773102 152.95661407 -22.12503052 151.69567871 C-22.12273675 150.3423153 -22.12022705 148.98895225 -22.11752319 147.6355896 C-22.12187124 146.20794915 -22.1270547 144.78031104 -22.13301086 143.35267639 C-22.14640447 139.47650752 -22.14697897 135.60043615 -22.14444757 131.72424865 C-22.14337776 128.48631707 -22.14826165 125.2484052 -22.15305299 122.01047784 C-22.16415015 114.36889854 -22.16458489 106.72736838 -22.15853882 99.08578491 C-22.15250258 91.20936671 -22.16480061 83.3331273 -22.18610889 75.4567396 C-22.2037411 68.689715 -22.20972356 61.92274722 -22.20647115 55.1557005 C-22.20466018 51.11621924 -22.20727539 47.07686543 -22.22118568 43.03740501 C-22.23378526 39.23622332 -22.23179997 35.43531948 -22.2187748 31.63414192 C-22.2164138 30.24221578 -22.21912658 28.85026996 -22.22739792 27.45836639 C-22.27520645 18.78480867 -22.28512311 12.47444707 -16.53036499 5.63095093 C-11.27107744 1.22782646 -6.76226987 -0.0635187 0 0 Z M-7.84286499 17.38095093 C-8.14784526 19.93440664 -8.14784526 19.93440664 -8.09683228 22.96090698 C-8.10247192 24.14716171 -8.10811157 25.33341644 -8.11392212 26.55561829 C-8.10987366 27.86373978 -8.1058252 29.17186127 -8.10165405 30.5196228 C-8.10436295 31.90581954 -8.10792332 33.29201484 -8.11227417 34.6782074 C-8.1214125 38.44879988 -8.11784802 42.21928324 -8.111516 45.9898777 C-8.10646345 49.93009365 -8.11114537 53.87030006 -8.11428833 57.81051636 C-8.11793016 64.42824995 -8.11312322 71.04593895 -8.10360718 77.66366577 C-8.0927222 85.32198202 -8.09624762 92.98019179 -8.10725999 100.63850546 C-8.11632672 107.20583558 -8.11762116 113.77313358 -8.11238265 120.34046793 C-8.10925955 124.26632845 -8.10886287 128.19213888 -8.11545563 132.11799622 C-8.12121956 135.80828795 -8.11724981 139.49844199 -8.10566711 143.1887188 C-8.10174728 145.19457178 -8.10771429 147.20043636 -8.11392212 149.20628357 C-8.10546265 150.98566566 -8.10546265 150.98566566 -8.09683228 152.80099487 C-8.09607822 153.83633614 -8.09532417 154.8716774 -8.09454727 155.93839264 C-8.08392945 158.56049031 -8.08392945 158.56049031 -5.84286499 160.38095093 C-3.37640358 160.57831104 -1.02214491 160.65028276 1.44546509 160.63491821 C2.58522277 160.63959818 2.58522277 160.63959818 3.74800587 160.6443727 C6.30763701 160.65238387 8.86703313 160.64601702 11.42666626 160.63973999 C13.25620666 160.64244847 15.08574597 160.64600859 16.9152832 160.65036011 C21.89450614 160.65950339 26.8736465 160.65593189 31.85287094 160.64960194 C37.0543109 160.64455195 42.25574361 160.64923059 47.45718384 160.65237427 C56.19344355 160.65601684 64.92966949 160.65120718 73.66592407 160.64169312 C83.77815234 160.63080801 93.89029997 160.63433338 104.00252628 160.64534593 C112.67174757 160.65441051 121.34094453 160.65570815 130.01016903 160.65046859 C135.19358073 160.64734431 140.37695448 160.64695204 145.56036377 160.65354156 C150.43256038 160.65930237 155.30465263 160.65534143 160.17683792 160.64375305 C161.96916149 160.64109967 163.76149379 160.64188305 165.55381393 160.64627838 C167.99226442 160.65170866 170.43037627 160.64493067 172.86880493 160.63491821 C173.58533139 160.63937966 174.30185785 160.6438411 175.04009724 160.64843774 C179.04483597 160.72488478 179.04483597 160.72488478 182.15713501 158.38095093 C182.45929468 155.80763163 182.45929468 155.80763163 182.40437317 152.75630188 C182.40856766 151.56018784 182.41276215 150.36407379 182.41708374 149.13171387 C182.41146423 147.81267059 182.40584473 146.49362732 182.40005493 145.13461304 C182.4011274 143.73694266 182.40306556 142.33927271 182.4058075 140.94160461 C182.41066415 137.14008053 182.40299033 133.33867343 182.39285445 129.5371635 C182.38408874 125.56578749 182.3858311 121.59441532 182.38621521 117.62303162 C182.38527799 110.95402054 182.37658567 104.2850549 182.36294556 97.61605835 C182.34721299 89.89526283 182.34194764 82.17451707 182.34268111 74.45370668 C182.34329053 67.0383961 182.3381934 59.6231018 182.3298893 52.2077961 C182.32635016 49.04631994 182.32452515 45.88484955 182.32399559 42.72337151 C182.32299426 39.00438795 182.31691495 35.2854465 182.30682945 31.56647682 C182.30389791 30.19783664 182.3026804 28.8291916 182.30325699 27.4605484 C182.3037444 25.59989984 182.29749793 23.73925307 182.29084778 21.87861633 C182.28833401 20.31316023 182.28833401 20.31316023 182.28576946 18.71607876 C182.4197853 16.42122017 182.4197853 16.42122017 181.15713501 15.38095093 C178.74584357 15.27884942 176.36304245 15.24207434 173.95109558 15.24723816 C172.8064942 15.24383982 172.8064942 15.24383982 171.63876957 15.24037284 C169.06227541 15.23400401 166.48583347 15.23486403 163.90933228 15.23568726 C162.07008801 15.23269756 160.23084437 15.22929548 158.39160156 15.22550964 C153.38135236 15.21664623 148.37112021 15.21433055 143.36086392 15.21369386 C139.18564895 15.21274674 135.010438 15.20907074 130.83522457 15.20552176 C120.98899409 15.19736834 111.14277277 15.19493834 101.29653931 15.19564819 C91.12242125 15.19624926 80.94835617 15.18569364 70.77425152 15.16990453 C62.05409989 15.1568515 53.33396562 15.15146335 44.61380428 15.1521036 C39.39907309 15.15235925 34.18438894 15.14947174 28.96966743 15.13892555 C24.06712419 15.12928207 19.16467332 15.12913945 14.26212692 15.13644218 C12.45851317 15.13749271 10.65489378 15.13509764 8.85128975 15.12908173 C6.39746866 15.12142452 3.94397163 15.12596452 1.49015808 15.13371277 C0.76905855 15.12856921 0.04795902 15.12342564 -0.69499201 15.11812621 C-4.71623648 15.03447406 -4.71623648 15.03447406 -7.84286499 17.38095093 Z " fill="#050505" transform="translate(32.842864990234375,12.619049072265625)"/>
<path d="M0 0 C8.21146478 3.74445651 14.92114092 10.71623269 21.53918839 16.73250484 C24.10767435 19.06130066 26.69475541 21.32040836 29.42089844 23.46362305 C38.21672345 30.51138406 41.32247365 35.76644335 48 46 C48 62.83 48 79.66 48 97 C-4.8 97 -57.6 97 -112 97 C-112 75 -112 75 -105 66.5625 C-102.71142578 64.43041992 -102.71142578 64.43041992 -100.8203125 62.98046875 C-100.15161133 62.45630371 -99.48291016 61.93213867 -98.79394531 61.39208984 C-98.20194336 60.9327002 -97.60994141 60.47331055 -97 60 C-95.61694902 58.80089015 -94.23969759 57.59495694 -92.875 56.375 C-92.00488281 55.64216797 -92.00488281 55.64216797 -91.1171875 54.89453125 C-85.84870568 50.18011486 -80.96332297 45.03141734 -76 40 C-72.95667235 41.3584202 -70.87690849 42.88463024 -68.546875 45.2578125 C-67.928125 45.88300781 -67.309375 46.50820312 -66.671875 47.15234375 C-66.03765625 47.80332031 -65.4034375 48.45429687 -64.75 49.125 C-64.1003125 49.78371094 -63.450625 50.44242188 -62.78125 51.12109375 C-61.18288273 52.74296643 -59.58938103 54.3693281 -58 56 C-54.10604884 54.41600411 -51.48847765 51.75803057 -48.58886719 48.81591797 C-47.79795181 48.02544067 -47.79795181 48.02544067 -46.99105835 47.21899414 C-45.25487928 45.48142524 -43.525886 43.73688686 -41.796875 41.9921875 C-40.59233563 40.78391678 -39.38735303 39.57608778 -38.1819458 38.36868286 C-35.01451894 35.19362923 -31.85314487 32.01261478 -28.69299316 28.83032227 C-25.46562911 25.58247924 -22.23257772 22.34030867 -19 19.09765625 C-12.66108697 12.73731018 -6.32855376 6.37065247 0 0 Z " fill="#000000" transform="translate(152,61)"/>
<path d="M0 0 C4.87873385 2.8479113 8.00751462 7.03719871 10.83984375 11.83984375 C12.29558786 18.47156691 11.82374358 24.13684978 8.80078125 30.2578125 C5.6897117 35.02869848 1.54792694 38.35237751 -3.53515625 40.83984375 C-10.15288345 42.05534466 -15.6870713 42.17841366 -21.67578125 38.80078125 C-26.97030666 34.94826073 -31.39440888 29.95335723 -32.59765625 23.40234375 C-33.36747788 16.86496962 -32.48055318 11.79968435 -28.59765625 6.40234375 C-20.22359081 -2.55973113 -11.28672052 -4.88685434 0 0 Z " fill="#030303" transform="translate(72.59765625,44.59765625)"/>
</svg>
